<svg width="329" height="66" viewBox="0 0 329 66" fill="none" xmlns="http://www.w3.org/2000/svg">
<path d="M7.38289 20.1495C6.7663 23.7122 4.30399 26.2473 0 27.757V27.5514C2.30715 26.3178 3.69144 25.0132 4.15287 23.6449C1.99684 23.7806 0.692146 24.1239 0.230715 24.6729C0.53699 23.028 1.07398 21.8617 1.84572 21.1776C2.152 20.9015 3.99772 20.5607 7.38289 20.1495ZM119.049 31.0467C119.049 33.1028 118.588 34.8823 117.665 36.3915C116.742 38.1721 115.358 39.0649 113.512 39.0649C112.279 39.0649 111.356 38.9935 110.743 38.8598C110.743 39.544 110.743 40.2281 110.743 40.9159C110.743 43.6561 110.357 45.3683 109.59 46.0561C103.436 52.359 97.6681 55.514 92.2861 55.514C89.979 55.514 88.2088 54.5533 86.9797 52.635C85.9016 51.1248 85.3647 49.4121 85.3647 47.4948C85.3647 44.3398 86.2079 40.4337 87.9025 35.7752C86.0568 37.0083 82.9779 39.5435 78.6739 43.3827C73.9044 47.4948 70.4437 50.3738 68.2917 52.0182C64.29 54.7589 61.06 56.1303 58.6017 56.1303C56.756 56.1303 55.1409 55.3403 53.7567 53.7658C52.3724 52.1888 51.6802 50.3728 51.6802 48.3167C51.6802 45.8489 52.6031 42.6944 54.4488 38.8593C54.1385 38.994 53.7567 39.0644 53.2952 39.0644C52.2172 39.0644 51.2943 38.9929 50.5266 38.8593C50.5266 39.5435 50.5266 40.2276 50.5266 40.9154C50.5266 43.6556 50.2163 45.3 49.6038 45.85C42.372 52.1534 36.5286 55.3079 32.0694 55.3079C29.7623 55.3079 27.9921 54.485 26.763 52.8396C25.5304 51.1957 24.9172 49.207 24.9172 46.877C24.9172 46.0545 25.2991 44.2365 26.0708 41.4284C26.8385 38.6167 27.2244 36.1854 27.2244 34.1293C27.2244 32.4844 26.9937 30.9064 26.5323 29.4003C24.6865 28.9891 22.8408 27.8228 20.9951 25.905C19.1494 23.9841 17.9168 23.026 17.3036 23.026C16.5325 23.026 15.3028 24.1897 13.6122 26.5218C12.379 28.3014 11.305 30.0845 10.3822 31.8671C13.9185 33.512 15.6886 37.0746 15.6886 42.5582H14.5351C12.841 41.873 11.2255 41.1215 9.69004 40.2991C8.15117 39.3389 7.38289 37.8991 7.38289 35.9818C3.84314 37.4889 2.07644 39.545 2.07644 42.15C2.07644 42.423 3.57609 45.5744 6.57539 51.6075C9.57468 57.6369 11.0743 62.4343 11.0743 66H10.6129C10.3026 63.8051 8.53646 59.7608 5.30645 53.8681C2.38271 48.3851 0.922861 44.4112 0.922861 41.9439C0.922861 38.3777 3.30557 35.0879 8.07504 32.0748C8.68816 30.2916 10.227 27.8922 12.6893 24.8785C15.4579 21.3122 17.6861 19.5327 19.3801 19.5327C19.9932 19.5327 21.4565 20.7664 23.7637 23.2336C23.4534 22.5459 23.3022 21.8617 23.3022 21.1776C23.3022 19.3944 23.9944 17.8879 25.3787 16.6542C26.763 15.4206 28.4535 14.8032 30.4544 14.8032C31.9904 14.8032 34.9897 15.4529 39.4523 16.757C43.9115 18.0575 47.8336 18.7103 51.2188 18.7103L48.4502 22.8224C46.2948 23.0954 42.834 24.329 38.068 26.5234C33.9151 28.4407 30.4544 29.4019 27.6858 29.4019C27.5307 29.4019 27.2244 29.4019 26.763 29.4019C27.5313 31.3197 27.9165 33.3757 27.9165 35.5701C27.9165 37.3501 27.646 39.3389 27.109 41.5327C26.568 43.725 26.3015 44.9576 26.3015 45.2342C26.3015 49.6193 28.2984 51.8131 32.3001 51.8131C35.2204 51.8131 38.605 50.4417 42.4516 47.7009C44.9099 45.9178 47.217 44.0684 49.3731 42.15C49.3731 41.1893 48.7565 39.6822 47.5273 37.6262C46.9108 36.3925 46.2186 35.1589 45.4509 33.9258L47.0659 30.4304C48.4502 32.3482 49.4486 33.6492 50.0652 34.3365C51.1398 35.2941 52.2934 35.7767 53.5259 35.7767C55.0619 35.7767 56.2945 35.2278 57.2174 34.1319C57.2174 32.0758 57.0622 30.0871 56.756 28.1687L52.8338 6.37486C52.6786 5.00603 52.3724 3.97799 51.9109 3.29075L53.0645 0.411729L57.2174 7.19626V8.42991L55.1409 6.57944C54.9858 6.85598 54.9858 7.12893 55.1409 7.40238L58.6017 28.1682C58.7528 28.7146 58.8324 29.6758 58.8324 31.0472C58.8324 35.1594 57.5992 37.694 55.1409 38.6547C53.6015 41.6684 52.8338 44.3413 52.8338 46.6734C52.8338 47.9071 53.3708 49.0703 54.4488 50.1698C55.6779 51.4029 57.1384 52.0202 58.8324 52.0202C61.601 52.0202 65.1373 50.1698 69.4453 46.4688C73.2884 43.3138 77.135 40.0955 80.9811 36.8053C83.9013 34.6099 86.7489 32.7605 89.5175 31.2534C88.7458 30.9778 87.5922 30.2253 86.0568 28.9922C83.9008 27.482 82.8268 25.7693 82.8268 23.852C82.8268 20.6975 84.7481 19.123 88.5947 19.123C95.9776 19.123 103.974 20.2857 112.589 22.6184L109.59 26.7305C106.821 27.5535 101.821 29.333 94.5933 32.0763C95.361 33.1722 96.2083 35.7772 97.1311 39.8894C92.9782 39.8894 90.9018 38.7899 90.9018 36.5997C90.9018 36.3236 90.9774 35.8446 91.1325 35.1604C91.2842 34.4732 91.3632 33.9936 91.3632 33.7212C90.7467 34.1324 89.8244 34.6778 88.5947 35.365C87.0552 39.7501 86.2875 43.0408 86.2875 45.2347C86.2875 49.6198 88.3639 51.8136 92.5168 51.8136C96.976 51.8136 102.668 48.5917 109.59 42.1506C109.435 41.1899 108.819 39.6828 107.744 37.6267C106.973 36.5282 106.281 35.365 105.668 34.1314L107.052 30.4304C108.436 32.4865 109.51 33.7875 110.282 34.3365C111.205 35.2941 112.358 35.7767 113.743 35.7767C115.278 35.7767 116.511 35.2278 117.434 34.1319C117.279 32.0758 117.048 30.0871 116.742 28.1687L113.05 6.57995C112.74 5.07336 112.434 3.97748 112.128 3.29075L113.281 0.411729L117.203 7.19678V8.43042L115.358 6.57944C115.202 6.99117 115.202 7.33505 115.358 7.60748L118.818 28.1682C118.97 28.7141 119.049 29.6748 119.049 31.0467ZM15.9194 12.7477C15.9194 15.0767 15.0721 16.2435 13.3815 16.2435C11.842 16.2435 11.0743 15.4879 11.0743 13.9818C11.0743 13.0211 11.305 11.8584 11.7665 10.4865C12.6893 8.84164 13.1508 7.88402 13.1508 7.60748C13.457 8.70696 13.5332 9.45846 13.3815 9.86916C15.0721 10.6916 15.9194 11.6523 15.9194 12.7477ZM15.2272 13.5701C14.6106 12.8829 13.6883 12.4033 12.4586 12.1308C11.842 12.6772 11.5358 13.0201 11.5358 13.1589C11.5358 13.9813 12.0728 14.3925 13.1508 14.3925C13.9185 14.3925 14.6106 14.116 15.2272 13.5701ZM21.4565 47.4953L19.8415 49.756C18.9187 50.0289 17.9168 50.2356 16.8422 50.3733C15.1476 50.9197 14.3043 51.5365 14.3043 52.2243C15.0726 54.9645 15.4579 56.8829 15.4579 57.9808C15.4579 60.4486 15.3789 61.8879 15.2272 62.298C15.2272 60.7879 14.9169 58.8027 14.3043 56.3354C13.6883 53.8671 13.3815 52.2906 13.3815 51.6065C13.3815 50.3733 13.8787 49.5504 14.8811 49.1392C15.8796 48.7269 16.8422 48.3836 17.7651 48.1111C17.1491 47.6989 16.6115 47.4943 16.1501 47.4943L14.7658 48.5223V47.4943C15.2272 46.9448 15.609 46.4308 15.9194 45.9522C16.2256 45.4701 16.6115 45.2331 17.0729 45.2331C17.9958 45.2336 19.4556 45.9851 21.4565 47.4953ZM23.3022 37.215L21.4565 40.5036L17.5344 38.8598L18.9187 35.9813L15.4579 34.3359L17.0729 31.0472L21.2258 32.6921L19.6108 35.5701L23.3022 37.215ZM42.913 21.3832C41.9902 21.2444 39.8347 20.7664 36.453 19.9434C33.6844 19.1215 31.5284 18.7103 29.993 18.7103C26.4527 18.7103 24.6865 19.8735 24.6865 22.2056C24.6865 23.1627 25.0689 24.1234 25.8401 25.0841C26.4532 25.6305 27.2244 25.9071 28.1473 25.9071C30.2993 25.9071 32.7616 25.3576 35.5302 24.2622C39.9893 22.4786 42.4516 21.5179 42.913 21.3832ZM44.9895 37.0093C42.6823 42.2169 39.7586 44.8224 36.2223 44.8224C33.6054 44.8224 32.3001 43.724 32.3001 41.5327C32.3001 39.7496 33.9907 37.9001 37.3759 35.9818C36.7599 35.5701 36.1433 35.3645 35.5302 35.3645C34.759 35.3645 33.9907 35.7053 33.223 36.3925V35.5701C33.9907 34.0599 35.0687 33.3084 36.453 33.3084C38.7602 33.3084 40.6059 33.5814 41.9902 34.1319L39.2216 36.392C38.1436 36.665 36.9502 37.2823 35.6455 38.2435C34.3368 39.2006 33.6844 40.023 33.6844 40.7108C33.6844 41.9444 34.9136 42.5613 37.3759 42.5613C39.067 42.5613 40.7576 41.7388 42.4516 40.0945C43.2193 38.9945 44.0666 37.9664 44.9895 37.0093ZM49.1424 9.04673C49.1424 10.6911 48.5258 11.514 47.2966 11.514C46.68 11.514 46.0635 11.2411 45.4509 10.6911C44.9895 11.7906 44.2973 12.3359 43.3745 12.3359C42.2965 12.3359 41.7595 11.7191 41.7595 10.4855C41.7595 9.66252 41.7595 8.84061 41.7595 8.01818C41.4492 8.29472 41.0673 8.70542 40.6059 9.25131V8.42888C40.9122 7.74472 41.6804 6.85444 42.913 5.75598C42.4516 8.63449 42.7579 10.0737 43.8359 10.0737C44.6036 10.0737 44.9895 9.59467 44.9895 8.63397C44.9895 8.22276 44.8343 7.40084 44.528 6.16668L45.2202 4.93458C45.6816 5.62182 45.9885 6.64986 46.1431 8.01869C46.1431 8.97939 46.5255 9.45794 47.2966 9.45794C47.7581 9.45794 47.9888 9.11715 47.9888 8.42991L47.2966 5.75701L48.2195 4.31776C48.8326 6.10089 49.1424 7.67841 49.1424 9.04673ZM62.2931 44.4112C62.138 46.3285 61.3703 47.2902 59.986 47.2902C58.6017 47.2902 57.9095 46.6729 57.9095 45.4393C57.9095 43.6561 58.9841 41.6 61.1395 39.271C60.0615 41.4623 59.5245 43.0393 59.5245 44C59.5245 44.9566 59.9064 45.4393 60.6781 45.4393C61.4458 45.4393 61.9073 45.0954 62.0624 44.4112H62.2931ZM66.9074 32.486C66.9074 35.364 66.5216 37.5557 65.7539 39.0654H65.2924C65.4435 36.0486 65.2924 32.8972 64.831 29.608L60.6781 6.37435C60.523 5.00551 60.2167 3.97748 59.7553 3.29023L60.9088 0.411215L64.831 7.19626V8.42991L62.9853 6.57893C62.8301 6.85547 62.8301 7.12841 62.9853 7.40187L66.6767 29.4019C66.8278 30.086 66.9074 31.1141 66.9074 32.486ZM77.2896 6.78505C77.2896 7.33402 77.0589 7.95187 76.5975 8.63551C76.136 8.2243 75.7502 8.01921 75.4439 8.01921C74.6727 8.01921 74.0596 8.97991 73.5982 10.8977C73.2879 12.1314 73.0571 13.5002 72.906 15.0099C72.4446 13.9109 71.6734 12.4716 70.5989 10.6921C70.4437 11.3804 69.9823 11.7201 69.2146 11.7201C67.9814 11.7201 67.3689 11.1038 67.3689 9.86967C67.3689 8.36257 67.9064 7.60799 68.9839 7.60799C70.3682 7.60799 71.5973 9.04776 72.6753 11.9257C73.5982 6.99117 74.7517 4.52388 76.136 4.52388C76.9037 4.52336 77.2896 5.27846 77.2896 6.78505ZM77.5203 18.2991C76.9037 21.9995 74.521 24.5346 70.3682 25.9065L70.1374 25.7009C72.4446 24.4678 73.8289 23.1627 74.2903 21.7944C72.1349 21.9296 70.8296 22.2729 70.3682 22.8224C70.6744 21.1776 71.2114 20.0113 71.9832 19.3271C72.2894 19.0511 74.1352 18.7103 77.5203 18.2991ZM77.2896 31.0467L75.4439 34.3354L71.5217 32.6916L73.3675 29.4019L77.2896 31.0467ZM81.4425 53.0467C81.4425 54.9645 80.6707 55.9258 79.1353 55.9258C77.751 55.9258 77.0589 55.3094 77.0589 54.0748C77.0589 52.2916 78.1329 50.2356 80.2889 47.9065H80.5196C79.2865 50.0978 78.6739 51.6753 78.6739 52.6355C78.6739 53.5926 79.0563 54.0748 79.8275 54.0748C80.5958 54.0748 81.0566 53.7314 81.2118 53.0467H81.4425ZM85.5954 9.04673C85.5954 10.6911 85.2101 12.5421 84.4418 14.5981C84.5935 13.4997 84.6725 12.2691 84.6725 10.8972C84.6725 8.42991 83.8252 6.5121 82.1346 5.14019L82.3654 2.6729C83.4399 3.22187 84.2474 4.18308 84.7879 5.5514C85.3249 6.92332 85.5954 8.08911 85.5954 9.04673ZM104.745 25.2897C100.437 23.6449 95.4365 22.8224 89.7482 22.8224C86.9797 22.8224 85.1339 23.0954 84.2111 23.6449C84.2111 23.9178 85.2095 24.7053 87.2104 26.0099C89.2072 27.3103 90.9018 28.58 92.2861 29.8131C95.5161 28.4412 99.669 26.9346 104.745 25.2897ZM109.82 2.05607C109.82 2.87902 109.55 3.83972 109.013 4.93509C108.472 6.03355 107.82 6.85547 107.052 7.40238C107.975 5.75752 108.436 4.59481 108.436 3.90706C100.592 6.1014 93.4397 9.80234 86.9797 15.0099C87.1314 14.3221 87.2859 13.6379 87.4411 12.9538C90.0545 10.6248 93.555 8.43042 97.9386 6.37435C102.322 4.31776 106.281 2.8785 109.82 2.05607ZM104.053 38.243C104.359 39.3389 104.053 39.9552 103.13 40.094C102.668 40.2292 101.976 39.9552 101.053 39.271C100.437 40.2281 99.4383 41.5317 98.054 43.1781C96.3594 44.9576 94.1318 46.0571 91.3632 46.4673L89.2868 46.8785C91.4388 45.9178 93.8221 44.5464 96.439 42.7664C98.591 41.2562 100.051 39.7496 100.823 38.243C101.436 37.144 101.976 36.5277 102.438 36.3915C103.205 36.2548 103.742 36.8711 104.053 38.243ZM105.898 13.7757C105.898 15.4206 105.282 16.2435 104.053 16.2435C103.436 16.2435 102.82 15.8996 102.207 15.2155C101.745 16.3108 101.053 16.8598 100.13 16.8598C99.2076 16.8598 98.6665 16.3114 98.5154 15.2155C98.5154 14.2548 98.5154 13.3645 98.5154 12.5426C98.2057 12.9538 97.8994 13.365 97.5926 13.7757V13.1589C97.7437 12.4716 98.4358 11.5844 99.669 10.486C99.2076 13.2267 99.5138 14.5981 100.592 14.5981C101.36 14.5981 101.745 14.1869 101.745 13.3645C101.745 12.9533 101.59 12.064 101.284 10.6916L102.207 9.66355C102.513 10.213 102.744 11.1737 102.899 12.5426C102.899 13.5002 103.281 13.9818 104.053 13.9818C104.514 13.9818 104.745 13.7053 104.745 13.1594C104.745 13.0206 104.514 12.1314 104.053 10.4865L104.975 8.84164C105.589 10.6243 105.898 12.2691 105.898 13.7757ZM103.591 38.8598C102.975 38.0369 102.282 37.8318 101.515 38.243C102.438 38.7889 103.13 38.9945 103.591 38.8598ZM124.586 47.2897C124.586 48.658 124.125 49.3458 123.202 49.3458C122.585 49.3458 121.893 49.1407 121.126 48.7285C118.508 52.9768 113.663 55.0329 106.59 54.8967H106.36V54.6916C113.281 53.1814 117.971 51.058 120.433 48.3183C119.662 48.0417 119.28 47.6305 119.28 47.0851C119.28 46.6729 119.511 46.1918 119.972 45.6449C120.433 45.0964 120.815 44.8224 121.126 44.8224L120.895 44L121.126 43.7944C121.432 43.7944 121.969 44.0673 122.741 44.6168V44.8224C123.97 46.0561 124.586 46.8785 124.586 47.2897ZM127.124 32.486C127.124 35.364 126.739 37.5557 125.971 39.0654H125.509C125.66 36.0486 125.43 32.8972 124.817 29.608L120.895 6.37435C120.584 5.00551 120.278 3.97748 119.972 3.29023L121.126 0.411215L125.048 7.19626V8.42991L123.202 6.57893C123.047 6.85547 122.971 7.12841 122.971 7.40187L126.893 29.4019C127.045 30.086 127.124 31.1141 127.124 32.486ZM122.048 46.2617C122.048 45.9851 121.893 45.85 121.587 45.85C120.971 45.85 120.509 46.0556 120.203 46.4668C120.509 46.878 120.971 47.1509 121.587 47.2897C121.587 47.1509 121.663 46.9808 121.818 46.7757C121.969 46.5701 122.048 46.3964 122.048 46.2617ZM329 38.6542C329 40.572 328.499 42.1501 327.499 43.3832C326.498 44.6158 325.384 45.2336 324.154 45.2336C321.847 45.2336 320.232 43.9291 319.309 41.3266C318.694 43.9291 317.385 45.2336 315.387 45.2336C313.541 45.2336 312.309 44.1342 311.697 41.9444C310.463 44.5469 308.312 45.851 305.237 45.851C304.159 45.851 303.276 45.4722 302.583 44.7207C301.892 43.9656 301.544 43.1072 301.544 42.1506C301.544 41.7388 301.544 41.3955 301.544 41.1225C279.857 47.152 257.708 50.1698 235.098 50.1698C224.175 50.1698 213.487 49.3468 203.029 47.7015C193.029 46.3301 185.569 44.4796 180.649 42.1506C180.649 44.0679 180.569 45.9862 180.419 47.9071H179.958C178.112 46.8086 176.959 45.5076 176.497 44.0005C176.342 42.901 176.227 41.873 176.151 40.9164C176.071 39.9557 175.112 39.4761 173.267 39.4761C171.573 39.4761 168.689 41.6684 164.615 46.0566C160.538 50.4412 157.423 52.636 155.271 52.636C154.038 52.636 152.964 52.122 152.041 51.094C151.119 50.0659 150.657 48.6591 150.657 46.879C150.657 45.9183 150.888 44.7525 151.349 43.3837C150.578 43.6566 149.81 43.7949 149.042 43.7949C145.964 43.7949 143.966 41.9444 143.043 38.2435C142.733 42.7669 140.426 45.0286 136.122 45.0286C134.276 45.0286 132.892 44.1352 131.969 42.3557C131.353 40.9837 131.122 39.4067 131.277 37.6267C131.277 37.3507 131.428 36.393 131.738 34.7482C131.89 33.3763 131.969 32.1426 131.969 31.0472C130.891 32.4161 130.123 34.1992 129.662 36.392C129.352 37.8996 129.046 39.4057 128.739 40.9164C128.123 43.3837 127.124 44.6163 125.74 44.6163C124.662 44.6163 123.739 43.8268 122.971 42.2518C122.199 40.6748 121.818 38.994 121.818 37.2144C121.818 35.2936 121.969 33.1701 122.279 30.8406L122.741 31.0462C122.585 32.1416 122.51 33.2375 122.51 34.3349C122.51 38.9935 123.584 41.3266 125.74 41.3266C126.508 41.3266 127.2 40.2986 127.816 38.2425C128.89 34.8145 129.507 32.8257 129.662 32.2793C130.737 29.9478 132.121 28.3728 133.815 27.5509V30.2233C133.198 33.7864 132.892 35.9808 132.892 36.8032C132.892 39.8159 134.121 41.3266 136.583 41.3266C138.119 41.3266 139.467 40.7771 140.621 39.6817C141.775 38.5833 142.351 37.2823 142.351 35.7752L140.736 27.757L141.89 24.8785C142.658 26.2473 143.119 27.3458 143.274 28.1677C143.736 30.4967 144.117 32.8967 144.428 35.364C145.351 38.7889 147.041 40.5042 149.504 40.5042C151.039 40.5042 152.117 39.9557 152.734 38.8603C151.962 37.3501 151.195 35.8436 150.426 34.3359C149.348 31.8692 148.732 29.9483 148.581 28.58L147.888 27.1402L148.811 24.2617L152.041 28.785V29.8131C151.58 29.5365 151.119 29.1963 150.657 28.785C150.502 29.058 150.502 29.1963 150.657 29.1963C152.809 33.5814 153.887 36.5981 153.887 38.2435C153.887 40.7108 153.271 42.3557 152.041 43.1786C151.58 44.5469 151.349 45.575 151.349 46.2627C151.349 48.18 152.424 49.1417 154.579 49.1417C156.576 49.1417 159.576 46.9119 163.577 42.4595C167.574 38.0035 170.729 35.7772 173.036 35.7772C173.804 35.7772 174.882 36.1885 176.266 37.0104L177.42 34.5426C179.572 37.2828 185.956 39.8169 196.569 42.1495C208.718 44.6163 222.64 45.85 238.329 45.85C248.941 45.85 260.629 45.0275 273.398 43.3827C284.472 41.8725 294.468 40.022 303.391 37.8313C303.081 38.2425 302.929 38.72 302.929 39.2705C302.929 40.0935 303.235 40.845 303.852 41.5312C304.465 42.2158 305.157 42.5592 305.93 42.5592C307.464 42.5592 309.08 41.872 310.773 40.5031L313.773 37.8318L314.004 38.0374C314.004 38.3103 314.004 38.5838 314.004 38.8603C314.004 40.7771 314.771 41.7388 316.311 41.7388C317.078 41.7388 317.926 41.1225 318.847 39.8884C319.921 38.2435 320.693 37.2833 321.154 37.0093H321.385C321.385 37.2823 321.385 37.5557 321.385 37.8323C321.385 38.9277 321.806 39.9207 322.654 40.8136C323.498 41.7029 324.306 42.15 325.077 42.15C326.613 42.15 327.384 41.6011 327.384 40.5047C327.384 39.2721 326.23 36.8048 323.923 33.1038C321.461 29.1269 320.153 26.73 320.001 25.9076C319.846 25.631 319.615 25.2548 319.309 24.7767C318.999 24.2946 318.847 23.9862 318.847 23.8515L319.539 20.7674L324.154 25.0846V25.9065L322.077 25.0836V25.4953C323.307 27.1397 324.536 28.7845 325.768 30.4299C327.922 33.8543 329 36.5981 329 38.6542ZM123.894 47.9065C123.584 47.6305 123.123 47.1515 122.51 46.4673L122.048 47.4953C122.51 47.7683 122.971 47.9065 123.433 47.9065C123.584 47.9065 123.739 47.9065 123.894 47.9065ZM151.349 0C151.349 0.687243 151.039 1.57752 150.426 2.6729C149.81 3.77136 149.194 4.66164 148.581 5.34579C149.503 3.70093 149.965 2.46678 149.965 1.64486C140.426 4.38818 132.351 8.42991 125.74 13.7757C125.74 13.0885 125.892 12.3364 126.201 11.5145C128.815 9.32378 132.813 6.99117 138.198 4.52337C143.274 2.19435 147.658 0.687243 151.349 0ZM141.659 48.1122C141.659 48.7963 141.349 49.4805 140.736 50.1682C140.426 49.756 140.044 49.5514 139.583 49.5514C138.812 49.5514 138.198 50.4407 137.737 52.2243C137.582 53.5926 137.352 54.9645 137.045 56.3364C136.735 55.3757 135.967 53.9365 134.738 52.0187C134.583 52.8411 134.197 53.2523 133.584 53.2523C132.2 53.2523 131.508 52.5646 131.508 51.1963C131.508 49.8243 132.121 49.1402 133.353 49.1402C134.583 49.1402 135.812 50.5794 137.045 53.4574C137.813 48.5223 138.966 46.0561 140.506 46.0561C141.273 46.0561 141.659 46.7402 141.659 48.1122ZM142.121 17.6822C142.121 19.3271 141.428 20.1495 140.044 20.1495C139.583 20.1495 138.966 19.8057 138.198 19.1215C137.888 20.2169 137.196 20.7664 136.122 20.7664C135.199 20.7664 134.658 20.2169 134.507 19.1215C134.507 18.1608 134.507 17.271 134.507 16.4486C134.197 16.8598 133.89 17.2715 133.584 17.6822V16.8598C133.89 16.3114 134.583 15.4884 135.661 14.3925C135.35 17.1328 135.661 18.5047 136.583 18.5047C137.352 18.5047 137.737 18.0225 137.737 17.0654C137.737 16.7889 137.582 15.9664 137.276 14.5981L138.198 13.5701C138.66 14.1165 138.891 15.0767 138.891 16.4486C139.042 17.4057 139.504 17.8879 140.275 17.8879C140.736 17.8879 140.967 17.6123 140.967 17.0654C140.967 16.9272 140.736 16.0374 140.275 14.3925L140.967 12.7477C141.735 14.5277 142.121 16.1721 142.121 17.6822ZM147.888 15.4206C147.888 17.0654 147.503 18.9159 146.735 20.972C146.887 19.8735 146.966 18.6404 146.966 17.2715C146.966 14.8037 146.118 12.8829 144.428 11.5145L144.658 8.84164C145.581 9.52888 146.35 10.5569 146.966 11.9257C147.578 13.2936 147.888 14.4599 147.888 15.4206ZM160.347 32.486C160.347 35.364 160.037 37.5557 159.424 39.0654H158.963C159.114 36.0486 158.883 32.8972 158.271 29.608L154.349 6.37435C154.038 5.00551 153.732 3.97748 153.426 3.29023L154.579 0.411215L158.501 7.19626V8.42991L156.656 6.57893C156.501 6.85547 156.425 7.12841 156.425 7.40187L160.347 29.4019C160.347 30.086 160.347 31.1141 160.347 32.486ZM175.113 46.6724C175.265 47.906 174.958 48.5907 174.19 48.7285C173.729 48.7285 172.957 48.4529 171.883 47.906C171.267 48.8636 170.343 50.0973 169.114 51.607C167.269 53.3865 164.961 54.5523 162.193 55.1023L160.347 55.3079C162.344 54.485 164.652 53.1804 167.269 51.4008C169.576 49.7555 171.111 48.1779 171.883 46.6714C172.496 45.5729 172.957 44.9561 173.267 44.8209C174.035 44.8224 174.651 45.4393 175.113 46.6724ZM173.729 9.86916C173.729 10.4181 173.498 11.036 173.036 11.7196C172.575 11.3084 172.189 11.1033 171.883 11.1033C171.111 11.1033 170.499 11.9957 170.037 13.7757C169.727 15.2833 169.496 16.6547 169.346 17.8879C169.036 16.9277 168.268 15.5563 167.038 13.7757C166.883 14.4604 166.422 14.8037 165.655 14.8037C164.422 14.8037 163.809 14.1874 163.809 12.9533C163.809 11.4462 164.346 10.6916 165.424 10.6916C166.808 10.6916 168.037 12.1314 169.115 15.0093C170.038 10.0748 171.192 7.60748 172.576 7.60748C173.343 7.60748 173.729 8.36257 173.729 9.86916ZM174.421 21.1776L172.805 23.4393C171.882 23.7117 170.88 23.9857 169.806 24.2617C168.111 24.6729 167.269 25.2897 167.269 26.1122C168.036 28.7146 168.422 30.5651 168.422 31.6641C168.422 34.1314 168.343 35.5706 168.192 35.9813C168.192 34.4711 167.882 32.5184 167.269 30.122C166.653 27.7221 166.345 26.18 166.345 25.4958C166.345 24.1239 166.843 23.2342 167.845 22.8229C168.844 22.4117 169.806 22.0679 170.729 21.7949C169.958 21.5184 169.346 21.3837 168.884 21.3837C169.036 21.3837 168.574 21.6561 167.5 22.2061L167.73 21.1781C168.036 20.7669 168.384 20.2529 168.769 19.636C169.151 19.0192 169.576 18.7108 170.037 18.7108C170.959 18.7103 172.42 19.5327 174.421 21.1776ZM174.651 47.2897C174.036 46.4668 173.343 46.2617 172.575 46.6724C173.343 47.2188 174.035 47.4244 174.651 47.2897ZM179.496 41.7383C179.035 41.4623 178.343 40.8455 177.419 39.8879C177.419 40.572 177.61 41.3585 177.996 42.2523C178.378 43.1421 178.803 43.5888 179.265 43.5888C179.417 43.5883 179.496 42.972 179.496 41.7383ZM298.084 50.3738C297.313 50.3738 296.775 49.9621 296.469 49.1407C295.391 50.3738 294.393 50.9912 293.47 50.9912C293.16 50.9912 292.663 50.7856 291.97 50.3749C291.278 49.9626 290.852 49.757 290.701 49.757C289.93 49.757 288.47 50.1693 286.318 50.9907C283.548 52.086 281.317 52.9085 279.626 53.4585C276.241 54.4151 272.549 54.8972 268.551 54.8972L268.322 54.486C271.703 54.486 275.088 53.8686 278.473 52.635C280.319 52.0855 282.932 50.9901 286.319 49.3458C288.777 48.1127 290.547 47.4948 291.624 47.4948C291.93 47.4948 292.392 47.7678 293.008 48.3178C293.622 48.8642 294.162 49.1407 294.623 49.1407C295.237 49.1407 295.929 48.4529 296.701 47.0846L297.392 46.6724C297.237 47.7688 297.623 48.3178 298.546 48.3178C299.008 48.3178 299.47 47.63 299.93 46.2617L300.391 46.0566C300.391 48.9346 299.62 50.3738 298.084 50.3738ZM316.311 12.9533C316.311 13.4997 316 14.1869 315.387 15.0093C314.925 14.4599 314.539 14.1869 314.233 14.1869C313.462 14.1869 312.85 15.1435 312.387 17.0654C312.232 18.2991 312.002 19.6 311.696 20.972C311.234 20.0118 310.463 18.6404 309.389 16.8598C309.233 17.5445 308.773 17.8879 308.005 17.8879C306.772 17.8879 306.159 17.2715 306.159 16.0374C306.159 14.5272 306.697 13.7757 307.774 13.7757C309.158 13.7757 310.388 15.2155 311.466 18.0935C312.388 13.1589 313.542 10.6916 314.926 10.6916C315.849 10.6916 316.311 11.4467 316.311 12.9533ZM314.465 28.785C314.465 31.2523 313.618 32.486 311.927 32.486C310.388 32.486 309.62 31.7309 309.62 30.2243C309.62 29.2641 309.926 28.0978 310.544 26.729C311.467 25.0841 311.927 24.1239 311.927 23.8505C312.233 24.9458 312.309 25.7009 312.158 26.1116C313.693 26.9346 314.465 27.8243 314.465 28.785ZM313.773 29.8131C313.157 29.1258 312.233 28.58 311.004 28.1682C310.543 28.8529 310.312 29.2641 310.312 29.4019C310.312 30.086 310.85 30.4299 311.927 30.4299C312.695 30.4299 313.311 30.2243 313.773 29.8131ZM325.309 49.3458L323.694 52.635L319.771 50.7835L321.386 47.4948L325.309 49.3458Z" fill="black"/>
</svg>
