<svg width="40" height="40" viewBox="0 0 40 40" fill="none" xmlns="http://www.w3.org/2000/svg">
<g clip-path="url(#clip0_102_31)">
<path d="M31.0781 16.6219V9.97656C31.0781 9.39409 30.6059 8.92188 30.0234 8.92188H23.3781L18.7442 4.30734C18.3326 3.89755 17.6673 3.89755 17.2557 4.30734L12.6219 8.92188H5.97656C5.39409 8.92188 4.92188 9.39409 4.92188 9.97656V16.6219L0.307336 21.2558C-0.102445 21.6674 -0.102445 22.3327 0.307336 22.7443L4.92188 27.3781V34.0234C4.92188 34.6059 5.39409 35.0781 5.97656 35.0781H12.6219L17.2557 39.6927C17.4615 39.8976 17.7308 40 18 40C18.2692 40 18.5385 39.8976 18.7442 39.6927L23.3781 35.0781H30.0234C30.6059 35.0781 31.0781 34.6059 31.0781 34.0234V27.3781L35.6927 22.7443C36.1024 22.3327 36.1024 21.6674 35.6927 21.2558L31.0781 16.6219ZM29.2761 26.1983C29.0793 26.396 28.9688 26.6635 28.9688 26.9425V32.9688H22.9425C22.6636 32.9688 22.396 33.0793 22.1984 33.2761L18 37.4569L13.8017 33.2761C13.604 33.0793 13.3365 32.9688 13.0575 32.9688H7.03125V26.9425C7.03125 26.6636 6.92072 26.396 6.72391 26.1984L2.54313 22L6.72391 17.8017C6.92072 17.604 7.03125 17.3365 7.03125 17.0575V11.0312H13.0575C13.3364 11.0312 13.604 10.9207 13.8016 10.7239L18 6.54313L22.1984 10.7239C22.3961 10.9207 22.6636 11.0312 22.9425 11.0312H28.9688V17.0575C28.9688 17.3364 29.0793 17.604 29.2761 17.8016L33.4569 22L29.2761 26.1983Z" fill="#3B9B6E"/>
</g>
<defs>
<clipPath id="clip0_102_31">
<rect width="36" height="36" fill="white" transform="translate(0 4)"/>
</clipPath>
</defs>
</svg>
